<svg width="54" height="53" viewBox="0 0 54 53" fill="none" xmlns="http://www.w3.org/2000/svg">
<path d="M26.8414 12.672C19.434 12.672 13.2964 18.7037 13.2964 26.2169C13.2964 33.7302 19.3281 39.7619 26.8414 39.7619C34.3546 39.7619 40.3863 33.6243 40.3863 26.2169C40.3863 18.8095 34.2488 12.672 26.8414 12.672ZM26.8414 34.8942C22.0795 34.8942 18.1641 30.9788 18.1641 26.2169C18.1641 21.455 22.0795 17.5397 26.8414 17.5397C31.6033 17.5397 35.5186 21.455 35.5186 26.2169C35.5186 30.9788 31.6033 34.8942 26.8414 34.8942Z" fill="black"/>
<path d="M40.9155 15.4233C42.6103 15.4233 43.9842 14.0494 43.9842 12.3545C43.9842 10.6597 42.6103 9.28574 40.9155 9.28574C39.2206 9.28574 37.8467 10.6597 37.8467 12.3545C37.8467 14.0494 39.2206 15.4233 40.9155 15.4233Z" fill="black"/>
<path d="M48.8519 4.418C46.1005 1.56086 42.1852 0.0793762 37.7408 0.0793762H15.9418C6.73547 0.0793762 0.5979 6.21694 0.5979 15.4233V37.1164C0.5979 41.6667 2.07938 45.582 5.04234 48.4392C7.89949 51.1905 11.709 52.5662 16.0476 52.5662H37.6349C42.1852 52.5662 45.9947 51.0847 48.746 48.4392C51.6032 45.6878 53.0847 41.7725 53.0847 37.2222V15.4233C53.0847 10.9788 51.6032 7.16932 48.8519 4.418ZM48.4286 37.2222C48.4286 40.5027 47.2646 43.1482 45.3598 44.9471C43.455 46.746 40.8095 47.6984 37.6349 47.6984H16.0476C12.873 47.6984 10.2275 46.746 8.32277 44.9471C6.41801 43.0423 5.46563 40.3968 5.46563 37.1164V15.4233C5.46563 12.2487 6.41801 9.60319 8.32277 7.69842C10.1217 5.89948 12.873 4.9471 16.0476 4.9471H37.8466C41.0212 4.9471 43.6667 5.89948 45.5714 7.80424C47.3704 9.70901 48.4286 12.3545 48.4286 15.4233V37.2222Z" fill="black"/>
</svg>
