<svg width="289" height="36" viewBox="0 0 289 36" fill="none" xmlns="http://www.w3.org/2000/svg">
<path d="M275.822 8.69591V14.2159H286.622V21.3679H275.822V27.4639H288.062V34.9999H266.414V1.15991H288.062V8.69591H275.822Z" fill="white"/>
<path d="M255.299 1.15991V34.9999H245.891V16.3279L239.507 34.9999H231.635L225.203 16.1839V34.9999H215.795V1.15991H227.171L235.667 23.1439L243.971 1.15991H255.299Z" fill="white"/>
<path d="M191.607 1.15991V8.64791H182.583V34.9999H173.175V8.64791H164.247V1.15991H191.607Z" fill="white"/>
<path d="M135.403 1.15991V20.7919C135.403 22.6159 135.819 24.0239 136.651 25.0159C137.515 26.0079 138.811 26.5039 140.539 26.5039C142.267 26.5039 143.563 26.0079 144.427 25.0159C145.323 23.9919 145.771 22.5839 145.771 20.7919V1.15991H155.179V20.7919C155.179 23.8959 154.523 26.5519 153.211 28.7599C151.899 30.9359 150.107 32.5839 147.835 33.7039C145.595 34.7919 143.099 35.3359 140.347 35.3359C137.595 35.3359 135.131 34.7919 132.955 33.7039C130.811 32.5839 129.115 30.9359 127.867 28.7599C126.651 26.5839 126.043 23.9279 126.043 20.7919V1.15991H135.403Z" fill="white"/>
<path d="M98.8697 35.336C95.7017 35.336 92.7897 34.6 90.1337 33.128C87.4777 31.624 85.3657 29.56 83.7977 26.936C82.2617 24.28 81.4937 21.288 81.4937 17.96C81.4937 14.632 82.2617 11.656 83.7977 9.03196C85.3657 6.37596 87.4777 4.31196 90.1337 2.83996C92.7897 1.36796 95.7017 0.631958 98.8697 0.631958C102.07 0.631958 104.982 1.36796 107.606 2.83996C110.262 4.31196 112.358 6.37596 113.894 9.03196C115.43 11.656 116.198 14.632 116.198 17.96C116.198 21.288 115.43 24.28 113.894 26.936C112.358 29.56 110.262 31.624 107.606 33.128C104.95 34.6 102.038 35.336 98.8697 35.336ZM98.8697 26.6C101.27 26.6 103.158 25.816 104.534 24.248C105.942 22.68 106.646 20.584 106.646 17.96C106.646 15.272 105.942 13.16 104.534 11.624C103.158 10.056 101.27 9.27196 98.8697 9.27196C96.4377 9.27196 94.5336 10.056 93.1576 11.624C91.7816 13.16 91.0937 15.272 91.0937 17.96C91.0937 20.616 91.7816 22.728 93.1576 24.296C94.5336 25.832 96.4377 26.6 98.8697 26.6Z" fill="white"/>
<path d="M66.2824 17.6239C68.2664 18.0719 69.8344 19.0639 70.9864 20.5999C72.1704 22.1039 72.7624 23.8319 72.7624 25.7839C72.7624 28.6639 71.7704 30.9199 69.7864 32.5519C67.8024 34.1839 65.0184 34.9999 61.4344 34.9999H44.6824V1.15991H60.9064C64.3624 1.15991 67.0664 1.92791 69.0184 3.46391C71.0024 4.99991 71.9944 7.15991 71.9944 9.94391C71.9944 11.9279 71.4664 13.5919 70.4104 14.9359C69.3864 16.2479 68.0104 17.1439 66.2824 17.6239ZM54.0904 14.5999H58.8424C61.2104 14.5999 62.3944 13.6239 62.3944 11.6719C62.3944 9.65591 61.2104 8.64791 58.8424 8.64791H54.0904V14.5999ZM59.5624 27.4159C61.9304 27.4159 63.1144 26.4239 63.1144 24.4399C63.1144 23.4159 62.7944 22.6319 62.1544 22.0879C61.5464 21.5439 60.6664 21.2719 59.5144 21.2719H54.0904V27.4159H59.5624Z" fill="white"/>
<path d="M24.096 29.4799H12.096L10.272 34.9999H0.384033L12.72 1.15991H23.568L35.856 34.9999H25.92L24.096 29.4799ZM21.744 22.2799L18.096 11.3359L14.496 22.2799H21.744Z" fill="white"/>
</svg>
